<svg xmlns="http://www.w3.org/2000/svg" xmlns:xlink="http://www.w3.org/1999/xlink" viewBox="0 0 64 64" role="img" aria-label="Fyrefish">
  <defs>
    <linearGradient id="fav-a" y1="33.13" x2="168.46" y2="33.13" gradientUnits="userSpaceOnUse">
      <stop offset="0.11" stop-color="#f66048"/>
      <stop offset="0.33" stop-color="#f4593f"/>
      <stop offset="0.55" stop-color="#cf7a78"/>
      <stop offset="0.72" stop-color="#43bdb2"/>
      <stop offset="0.80" stop-color="#4dccc0"/>
    </linearGradient>
    <linearGradient id="fav-b" x1="86.59" y1="42.92" x2="131.72" y2="47.71" xlink:href="#fav-a"/>
  </defs>
  <rect width="64" height="64" rx="15" fill="#14211e"/>
  <g transform="translate(1.5 19.5) scale(0.362)">
    <path fill="url(#fav-a)" d="M115.7,5.3c16.1,0,29,4.7,38.3,14a43.3,43.3,0,0,1,8.1,11.2,135.6,135.6,0,0,1-20.4,13.3c-13.3,7.1-34.5,15.5-60.1,15.5A115.9,115.9,0,0,1,65,58.1h-.1c-3.1-.3-6-.5-8.8-.5l11.1-4.1-18-3.8a186.1,186.1,0,0,1-25.5-7.4A88.9,88.9,0,0,0,67.9,23.9l10-7.7L67.2,14.7a126.5,126.5,0,0,1,48.5-9.4m0-5.3C72.9,0,47.9,19.2,47.9,19.2l5.7-.2a95.4,95.4,0,0,1,11,.7C45.4,34.6,26.1,37.6,13.7,37.6A63.3,63.3,0,0,1,0,36.3S13.4,47.4,48.1,54.8A16.8,16.8,0,0,0,37.4,66.3s4.9-3.5,17.6-3.5a83,83,0,0,1,9.3.6,129.1,129.1,0,0,0,17.3,1.2c52,0,86.9-32.6,86.9-32.6S158.6,0,115.7,0Z"/>
    <path fill="url(#fav-b)" d="M131,54.7a29.9,29.9,0,0,1-6.1,1.8,40.9,40.9,0,0,1-6,.7,37.9,37.9,0,0,1-12.1-1.5,26.5,26.5,0,0,1-10.9-6.2,27.4,27.4,0,0,1-4-5,37.6,37.6,0,0,1-2.5-5.8L87.6,33l5.6,2.6h0a37.9,37.9,0,0,0,7.4,2.5,31,31,0,0,0,8.1.9,40,40,0,0,0,8.4-.9l4.2-1a28,28,0,0,0,4.1-1.3,28.5,28.5,0,0,1-3.7,2.3l-4,1.9a53.1,53.1,0,0,1-8.6,2.6,35.9,35.9,0,0,1-4.6.5,36.8,36.8,0,0,1-4.7,0,22,22,0,0,1-9-2.8h0l3.7-3.1a23.7,23.7,0,0,0,2,4.6,14.8,14.8,0,0,0,3.1,3.9,20.3,20.3,0,0,0,8.7,4.9,33,33,0,0,0,10.4,1.3,43.5,43.5,0,0,0,5.2-.6,25.3,25.3,0,0,0,4.9-1.4Z"/>
    <path fill="#4dccc0" d="M135.2,17c-6.4-1.9-8.4-.1-8.4-.1a4.1,4.1,0,0,1,2.5.3,7.7,7.7,0,0,0,5.4,7.3,14.3,14.3,0,0,0,9.6-.4A15.9,15.9,0,0,0,135.2,17Z"/>
  </g>
</svg>
