<svg xmlns="http://www.w3.org/2000/svg" viewBox="0 0 64 64" role="img" aria-label="Fyrefish">
  <rect width="64" height="64" rx="15" fill="#14211e"/>
  <!-- flame-fish mark: coral body sweeping to a teal tail -->
  <path d="M40 14c-9 6-18 11-18 22 0 8 6 14 14 14 3 0 6-.9 8.4-2.5-6 .3-10.4-3.6-10.4-9 0-6.6 6-9.7 6-9.7s-1 4 1.6 7.3c2.4 3 6.4 3.4 6.4 8.2 0 1.9-.8 3.6-2 4.9C51 45.6 54 39.7 54 33 54 24 48 18 40 14Z" fill="#e04a3a"/>
  <!-- tail flick -->
  <path d="M22 36c-4 1.5-7 4.2-9 8 4-2 7.5-2.2 10.5-1.2C22.5 40.6 22 38.4 22 36Z" fill="#2c8a86"/>
  <circle cx="38.5" cy="24.5" r="2.4" fill="#14211e"/>
</svg>
