<?xml version="1.0" standalone="no"?>
<!DOCTYPE svg PUBLIC "-//W3C//DTD SVG 20010904//EN"
 "http://www.w3.org/TR/2001/REC-SVG-20010904/DTD/svg10.dtd">
<svg version="1.0" xmlns="http://www.w3.org/2000/svg"
 width="270.000000pt" height="270.000000pt" viewBox="0 0 270.000000 270.000000"
 preserveAspectRatio="xMidYMid meet">
<metadata>
Created by potrace 1.11, written by Peter Selinger 2001-2013
</metadata>
<g transform="translate(0.000000,270.000000) scale(0.100000,-0.100000)"
fill="#000000" stroke="none">
<path d="M1748 1845 c-2 -1 -50 -5 -107 -9 -58 -4 -107 -9 -111 -11 -3 -2 -27
-6 -52 -9 -68 -8 -202 -42 -301 -75 -101 -34 -298 -129 -340 -163 l-28 -23 88
0 c48 1 103 -2 122 -5 l34 -5 -70 -47 c-162 -107 -326 -170 -533 -204 -51 -9
-225 -9 -295 0 l-60 7 35 -24 c104 -72 370 -177 578 -227 l92 -22 -43 -28
c-46 -29 -79 -69 -97 -115 -9 -23 -8 -26 5 -21 99 38 253 52 370 34 106 -16
402 -18 510 -3 282 40 563 139 806 286 102 62 249 174 249 190 0 26 -59 130
-109 190 -121 147 -317 250 -521 275 -56 6 -217 13 -222 9z m307 -110 c123
-28 244 -95 330 -181 48 -48 115 -141 115 -161 0 -20 -230 -167 -363 -232
-152 -74 -208 -89 -312 -86 -99 3 -177 31 -237 85 l-43 39 74 1 c40 0 101 7
135 16 57 14 212 82 204 89 -1 2 -37 -6 -78 -17 -87 -23 -232 -27 -300 -8 -25
7 -74 25 -109 41 -35 16 -66 28 -68 25 -6 -6 49 -150 70 -181 39 -58 111 -115
172 -137 l59 -22 -64 -13 c-144 -28 -379 -37 -525 -19 -38 4 -87 9 -108 11
-21 1 -40 4 -42 7 -3 2 25 15 61 27 35 13 63 25 60 28 -2 2 -93 24 -202 48
-213 48 -323 77 -382 102 l-37 16 70 13 c243 43 456 154 717 374 5 3 -7 7 -25
8 -17 2 -41 4 -52 7 -11 2 -31 4 -45 5 l-25 1 26 14 c54 29 300 94 419 110 19
2 82 7 140 11 58 4 106 7 107 8 7 6 205 -16 258 -29z"/>
<path d="M2010 1600 c-10 -6 -11 -10 -2 -10 6 0 12 -7 12 -15 0 -32 32 -77 65
-91 35 -14 103 -18 142 -8 l23 6 -26 32 c-44 52 -75 68 -174 91 -14 3 -32 1
-40 -5z"/>
</g>
</svg>
